<?xml version="1.0" encoding="UTF-8" standalone="no"?>
<!-- Created with Inkscape (http://www.inkscape.org/) -->

<svg
   width="100mm"
   height="100mm"
   viewBox="0 0 210 297"
   version="1.1"
   id="svg1133"
   inkscape:version="1.2.2 (b0a8486541, 2022-12-01)"
   sodipodi:docname="leaf-inverted.svg"
   xml:space="preserve"
   xmlns:inkscape="http://www.inkscape.org/namespaces/inkscape"
   xmlns:sodipodi="http://sodipodi.sourceforge.net/DTD/sodipodi-0.dtd"
   xmlns="http://www.w3.org/2000/svg"
   xmlns:svg="http://www.w3.org/2000/svg"><sodipodi:namedview
     id="namedview1135"
     pagecolor="#505050"
     bordercolor="#eeeeee"
     borderopacity="1"
     inkscape:showpageshadow="0"
     inkscape:pageopacity="0"
     inkscape:pagecheckerboard="0"
     inkscape:deskcolor="#505050"
     inkscape:document-units="mm"
     showgrid="false"
     showguides="true"
     inkscape:zoom="0.5"
     inkscape:cx="217"
     inkscape:cy="160"
     inkscape:window-width="788"
     inkscape:window-height="1017"
     inkscape:window-x="0"
     inkscape:window-y="0"
     inkscape:window-maximized="1"
     inkscape:current-layer="layer1"><inkscape:grid
       type="xygrid"
       id="grid1169" /></sodipodi:namedview><defs
     id="defs1130" /><g
     inkscape:label="Layer 1"
     inkscape:groupmode="layer"
     id="layer1"><g
       id="g443"
       transform="translate(49.408981,354.25655)"><path
         style="fill:#241c1c;stroke-width:0.785812"
         d="m 5.636781,-142.93236 -4.363408,2.0428 c -6.213102,2.91006 -6.52888,3.51067 -4.292808,8.12978 1.399059,2.89006 1.751307,4.73462 1.365963,7.14445 -0.623015,3.89612 0.287719,4.87547 5.001881,5.38251 7.394595,0.79534 9.915588,0.32324 11.801001,-2.21163 2.795145,-3.75796 2.459294,-9.77885 -0.765861,-13.75633 -1.401926,-1.72896 -3.943454,-3.95052 -5.648027,-4.93742 z"
         id="path426" /><path
         style="fill:#241c1c;stroke-width:0.785812"
         d="m -28.142413,-149.9218 c -0.840094,0.0878 -1.559222,0.5584 -2.239258,1.39819 -2.803352,3.46199 -10.037527,15.94552 -10.037527,17.32165 0,0.78349 0.984141,1.572 2.337485,1.87244 1.684853,0.37403 20.4404,5.40794 26.395319,7.08459 0.14755,0.0416 1.00692,-0.32048 1.910814,-0.80423 1.194424,-0.63925 1.64376,-1.78585 1.64376,-4.19919 0,-5.19114 -1.795813,-5.96572 -13.833063,-5.96572 -5.933167,0 -9.85858,-0.32289 -9.572485,-0.78582 0.266723,-0.43159 2.397517,-1.41842 4.734827,-2.19475 2.337301,-0.77633 4.818256,-1.98043 5.512966,-2.67514 2.131566,-2.13155 1.553248,-5.8442 -1.28155,-8.22954 -2.436608,-2.05025 -4.171128,-2.96887 -5.571288,-2.82248 z"
         id="path424" /><path
         style="fill:#241c1c;stroke-width:0.785812"
         d="m 22.536354,-152.28538 -3.583735,2.52627 c -1.971364,1.3893 -3.727416,2.96216 -3.902971,3.49472 -0.175564,0.53257 1.047787,1.81224 2.719648,2.8455 5.814683,3.59367 7.902167,11.64097 5.087829,19.61768 -1.972469,5.5911 -1.379855,6.21763 5.295026,5.59431 4.84505,-0.45244 6.059566,-0.91992 8.465902,-3.25222 4.141274,-4.01389 5.767854,-8.85472 4.526095,-13.46625 -1.188026,-4.41205 -8.554211,-12.11131 -14.612735,-15.27423 z"
         id="path422" /><path
         style="fill:#241c1c;stroke-width:0.785812"
         d="m 43.203837,-163.50316 c -2.10928,-0.0406 -4.040937,0.61471 -6.091582,1.95993 -1.986063,1.30285 -3.611361,2.96109 -3.611361,3.68503 0,0.72393 1.375893,2.05593 3.055767,2.96061 4.255808,2.29191 10.021587,8.96258 11.226989,12.98586 1.379811,4.60538 1.268544,11.15009 -0.263984,15.49371 -2.501411,7.08974 -3.030291,6.79758 12.321299,6.79758 10.08269,0 13.59363,-0.26597 13.59363,-1.02984 0,-0.56645 -1.50668,-2.57471 -3.34737,-4.46164 -6.93688,-7.11099 -10.07606,-14.22354 -11.5539,-26.17431 -0.5524,-4.46707 -2.78014,-7.19212 -8.174297,-10.00222 -2.759817,-1.43773 -5.045913,-2.17411 -7.155191,-2.21471 z"
         id="path420" /><path
         style="fill:#241c1c;stroke-width:0.785812"
         d="m -21.125353,-169.32461 c -0.336054,-0.0267 -0.648645,-0.0182 -0.942361,0.0292 -1.958118,0.3163 -3.064398,2.33505 -4.512282,6.78837 -1.032056,3.17434 -1.710302,6.04279 -1.505629,6.37399 0.204697,0.33119 2.131409,0.80141 4.280529,1.04365 4.973051,0.56053 8.698443,3.90254 9.42668,8.4567 0.600815,3.75727 1.376573,3.91509 6.648711,1.35368 3.628254,-1.76275 3.845356,-2.06363 3.827766,-5.31037 -0.03883,-7.16243 -5.366333,-14.12347 -13.464713,-17.59484 -1.533724,-0.65742 -2.750537,-1.06024 -3.758701,-1.14034 z"
         id="path418" /><path
         style="fill:#241c1c;stroke-width:0.785812"
         d="m 59.587725,-179.64301 c -0.43378,-0.0257 -0.83133,-8.8e-4 -1.17105,0.0844 -2.69571,0.67657 -9.621598,7.06549 -9.621598,8.87569 0,0.87863 1.818298,2.22994 4.885238,3.63131 6.22491,2.84426 6.28146,2.84528 8.845,0.0629 3.16825,-3.4387 4.96197,-6.34276 4.96197,-8.03156 0,-1.78724 -4.863,-4.44325 -7.89956,-4.62279 z"
         id="path416" /><path
         style="fill:#241c1c;stroke-width:0.785812"
         d="m -16.164911,-184.96259 c -0.538596,-0.0241 -1.034604,-0.0127 -1.490281,0.0353 -3.037856,0.31996 -4.315898,2.27513 -4.942024,6.32794 -0.369336,2.39068 -0.30719,4.5947 0.14734,5.15536 0.44735,0.55179 2.911381,0.94572 5.643423,0.90092 3.71101,-0.0608 5.894774,0.45881 9.296223,2.21317 5.526191,2.8502 6.438978,4.22231 10.688277,16.08613 0.867649,2.42243 3.675712,1.71277 7.45908,-1.88625 3.370011,-3.20581 3.517748,-3.55561 2.971353,-6.97256 -1.426796,-8.92269 -11.08592,-17.38831 -23.657253,-20.73501 -2.496017,-0.66447 -4.500346,-1.053 -6.116138,-1.125 z"
         id="path414" /><path
         style="fill:#241c1c;stroke-width:0.785812"
         d="m 77.174885,-197.65684 c -2.34635,0.11563 -3.8369,1.4073 -6.4983,4.16849 -5.2907,5.48901 -5.24173,7.59727 0.20873,9.01382 5.30594,1.37899 8.63129,1.34375 12.16321,-0.13199 1.6633,-0.69498 5.73694,-1.51674 9.05219,-1.82486 3.31525,-0.30812 6.21058,-0.85586 6.43384,-1.21709 0.89643,-1.45047 -6.30767,-6.04392 -12.61137,-8.04077 -3.53534,-1.11989 -5.87976,-1.79905 -7.68469,-1.94611 -0.37603,-0.0306 -0.72842,-0.038 -1.06361,-0.0215 z"
         id="path412" /><path
         style="fill:#241c1c;stroke-width:0.785812"
         d="m -8.543144,-201.94351 c -1.003907,-0.0199 -1.996969,-0.009 -2.968284,0.0353 -3.73249,0.16949 -7.200205,0.76483 -7.769107,1.33374 -1.565246,1.56523 -2.053092,10.04439 -0.630799,10.96147 0.637011,0.41074 5.173774,0.7459 10.080501,0.7459 7.901813,0 9.476021,0.26149 13.78088,2.27917 6.044778,2.83315 11.744938,8.59968 14.781563,14.95499 3.928216,8.22136 4.547024,8.49089 9.853352,4.2882 3.084636,-2.44307 3.363863,-2.98349 2.986701,-5.79536 -1.143207,-8.52328 -10.37131,-19.99923 -19.48109,-24.2282 -5.947773,-2.76109 -13.606291,-4.43587 -20.633717,-4.57521 z"
         id="path410" /><path
         style="fill:#241c1c;stroke-width:0.785812"
         d="m 95.778075,-218.91828 c -3.17903,-0.003 -5.04157,1.58883 -8.08221,5.37023 -5.36512,6.67215 -5.28115,7.63937 0.81958,9.40519 7.38493,2.13754 16.260275,6.52088 21.250705,10.49489 10.15709,8.08836 18.07747,21.90701 20.63218,35.99543 1.47637,8.1416 1.84519,8.30087 5.97801,2.56003 2.81699,-3.91323 2.90334,-4.2683 2.81634,-11.68282 -0.0998,-8.50612 -3.38417,-20.64513 -7.7645,-28.69597 -5.35016,-9.83332 -16.20672,-18.31512 -27.96695,-21.84927 -3.39496,-1.02025 -5.775765,-1.59601 -7.683155,-1.59771 z"
         id="path408" /><path
         style="fill:#241c1c;stroke-width:0.785812"
         d="m 0.472213,-221.82978 c -1.592165,0.0269 -3.132958,0.1197 -4.592092,0.28393 -10.501155,1.18197 -12.573361,2.66534 -14.136951,10.10813 -1.352486,6.43801 -0.488489,7.20068 6.304917,5.57896 6.17361,-1.47375 16.561178,-1.6191 22.682662,-0.31923 12.909665,2.7413 23.952086,12.77206 28.175675,25.59569 0.839729,2.54958 3.578914,1.64283 7.327088,-2.42343 3.226404,-3.50025 3.55218,-4.23307 3.10488,-6.98944 -1.274377,-7.85319 -9.523437,-19.81122 -16.884225,-24.47683 -7.094141,-4.49657 -20.836814,-7.54617 -31.981954,-7.35778 z"
         id="path406" /><path
         style="fill:#241c1c;stroke-width:0.785812"
         d="m 18.997128,-241.90791 c -1.845029,0.0168 -4.021038,0.0851 -6.717776,0.18725 -6.786703,0.25702 -13.678553,0.84129 -15.314135,1.29996 -1.635582,0.45867 -4.002307,1.06352 -5.259725,1.34448 -2.022428,0.4519 -2.542688,1.35549 -4.515352,7.82283 -1.226465,4.02095 -2.030822,7.83227 -1.786496,8.46897 0.35428,0.92324 1.613289,0.71705 6.2159,-1.0191 6.763949,-2.55143 16.599187,-4.5745 22.202272,-4.566 5.390902,0.008 17.071221,2.90365 22.202273,5.50376 8.051445,4.07996 13.581805,10.78891 17.869566,21.67737 1.84251,4.67892 3.14127,6.80818 4.13932,6.78838 0.29326,-0.006 2.11415,-1.47949 4.04725,-3.27525 1.93309,-1.79574 3.76445,-4.05372 4.07026,-5.01722 0.91272,-2.87573 -1.88601,-12.8535 -5.08323,-18.11667 -5.98325,-9.84949 -15.194763,-16.00615 -29.276117,-19.56704 -4.702427,-1.18914 -7.258931,-1.5821 -12.79401,-1.53172 z"
         id="path404" /><path
         style="fill:#241c1c;stroke-width:0.785812"
         d="m 110.50285,-242.33918 c -0.4623,-0.0246 -0.90253,-0.0118 -1.34601,0.0353 -0.5913,0.0628 -1.18974,0.18598 -1.85556,0.36528 -2.85526,0.76883 -3.66693,1.62276 -6.62108,6.97255 -3.868235,7.00507 -3.565505,8.28426 1.95992,8.30015 17.56043,0.0505 35.0246,17.10693 41.37334,40.40641 1.00999,3.7066 2.00696,7.02571 2.2147,7.3762 0.71913,1.21325 1.77949,0.628 2.31446,-1.27541 1.25139,-4.45244 1.56759,-18.64415 0.55713,-25.01094 -2.72668,-17.18042 -14.2674,-29.67577 -33.12998,-35.86804 -2.49262,-0.81829 -4.08003,-1.22758 -5.46692,-1.3015 z"
         id="path402" /><path
         style="fill:#241c1c;stroke-width:0.785812"
         d="m 31.84639,-261.2877 c -12.65177,0.003 -28.445197,2.47101 -31.851497,5.67105 -3.120757,2.93181 -8.436054,11.97665 -7.555771,12.85693 0.452754,0.45277 2.6554,0.0456 5.40553,-1.00068 10.846946,-4.12684 28.197652,-5.38577 39.054267,-2.83322 7.827154,1.84029 18.946286,7.67536 23.899756,12.54384 2.92036,2.87026 5.46474,6.75104 8.49352,12.95209 2.3783,4.86924 4.62929,8.66396 5.00189,8.43368 0.37258,-0.23028 1.86094,-2.51552 3.30747,-5.07862 3.16824,-5.61384 3.24786,-7.79454 0.57554,-15.69324 -4.8164,-14.23606 -16.33015,-23.03124 -35.301703,-26.96933 -2.943903,-0.61108 -6.811734,-0.88335 -11.029002,-0.8825 z"
         id="path400" /><path
         style="fill:#241c1c;stroke-width:0.785812"
         d="m 48.046099,-280.19018 c -13.443382,0.0271 -26.570002,4.35048 -34.518962,11.36666 -3.793054,3.34795 -3.223298,3.58215 4.255972,1.7604 13.706615,-3.33856 33.309536,-2.31733 42.673306,2.22238 9.57833,4.64373 19.07057,15.30274 24.43846,27.44051 2.53835,5.73964 3.98478,5.62084 6.01638,-0.49574 2.11021,-6.35323 1.38943,-16.84304 -1.57009,-22.85763 -6.38444,-12.97501 -20.2017,-19.47907 -41.295066,-19.43658 z"
         id="path398" /></g></g></svg>
