<?xml version="1.0" encoding="UTF-8" standalone="no"?>
<!-- Created with Inkscape (http://www.inkscape.org/) -->

<svg
   width="100mm"
   height="100mm"
   viewBox="0 0 210 297"
   version="1.1"
   id="svg1133"
   inkscape:version="1.2.2 (b0a8486541, 2022-12-01)"
   sodipodi:docname="leaf.svg"
   xml:space="preserve"
   xmlns:inkscape="http://www.inkscape.org/namespaces/inkscape"
   xmlns:sodipodi="http://sodipodi.sourceforge.net/DTD/sodipodi-0.dtd"
   xmlns="http://www.w3.org/2000/svg"
   xmlns:svg="http://www.w3.org/2000/svg"><sodipodi:namedview
     id="namedview1135"
     pagecolor="#505050"
     bordercolor="#eeeeee"
     borderopacity="1"
     inkscape:showpageshadow="0"
     inkscape:pageopacity="0"
     inkscape:pagecheckerboard="0"
     inkscape:deskcolor="#505050"
     inkscape:document-units="mm"
     showgrid="false"
     showguides="true"
     inkscape:zoom="1"
     inkscape:cx="73.5"
     inkscape:cy="140.5"
     inkscape:window-width="1920"
     inkscape:window-height="1080"
     inkscape:window-x="0"
     inkscape:window-y="0"
     inkscape:window-maximized="1"
     inkscape:current-layer="layer1"><inkscape:grid
       type="xygrid"
       id="grid1169" /></sodipodi:namedview><defs
     id="defs1130" /><g
     inkscape:label="Layer 1"
     inkscape:groupmode="layer"
     id="layer1"><path
       id="path958"
       style="display:inline;fill:#ff8080;stroke-width:0.849653"
       d="m 165.29318,51.430079 c -0.35329,-0.0013 -0.59884,0.05842 -0.71191,0.189181 -0.36435,0.421339 -1.09777,4.410042 -1.63128,8.86328 -1.29786,10.833514 -9.21477,34.813494 -11.49189,34.809245 -0.55016,-8.49e-4 -2.14148,-2.186294 -3.53636,-4.855642 -1.39487,-2.669349 -4.80312,-7.277062 -7.57386,-10.238986 C 126.79445,65.708493 105.25201,59.959215 82.060326,64.639537 66.203999,67.839508 55.107813,74.907894 41.208917,90.66515 c -9.468284,10.73426 -13.756213,19.41797 -19.017633,38.50325 -4.244801,15.39759 -9.802546,50.39951 -9.802546,61.73927 0,7.13861 -2.9922248,15.99081 -9.1205038,26.9765 -2.028939,3.63715 -3.48797198,6.94021 -3.24096098,7.33988 0.868524,1.4053 18.21901878,8.49405 28.18460478,11.51513 10.707486,3.24598 23.960764,5.88114 38.554685,7.6668 10.995808,1.34541 44.731877,1.58569 55.897907,0.39827 4.53785,-0.48256 10.78216,-1.62606 13.87657,-2.54067 6.101,-1.80327 13.91639,-6.49782 13.91639,-8.36045 0,-0.72875 -2.30127,-1.7427 -6.20147,-2.73317 -12.42526,-3.15542 -18.98591,-8.14616 -23.52146,-17.88919 -2.4621,-5.28893 -2.61625,-7.88945 -0.86792,-14.60175 4.63604,-17.79893 17.13388,-25.26308 33.72229,-20.13945 6.59631,2.0374 11.70402,6.18078 14.4242,11.70431 2.85847,5.80436 2.68348,19.01232 -0.3767,28.46671 -1.19467,3.69091 -1.78962,6.80089 -1.35248,7.07104 1.25204,0.77381 10.85698,-5.01647 17.28846,-10.42318 12.31906,-10.3562 20.60349,-22.88548 24.33294,-36.79896 2.60619,-9.72288 2.81532,-27.8659 0.43147,-37.38476 -4.72657,-18.87347 -17.70507,-32.20718 -35.91114,-36.89189 -2.87131,-0.73883 -6.41988,-1.34252 -7.88584,-1.34252 -1.48284,0 -2.86446,-0.52073 -3.11485,-1.17325 -0.25128,-0.6548 4.99143,-8.911862 11.87026,-18.692375 6.77681,-9.63545 12.56111,-17.903668 12.85267,-18.375417 1.13569,-1.83759 -0.72594,-4.297324 -5.36178,-7.084318 -5.2253,-3.141365 -13.01987,-6.176048 -15.4929,-6.184881 z M 97.455314,74.06704 c 21.093386,-0.04249 34.910046,6.460795 41.294486,19.435825 2.95953,6.014595 3.68009,16.504425 1.56987,22.857665 -2.0316,6.11658 -3.47726,6.23583 -6.01561,0.49619 -5.3679,-12.13778 -14.86081,-22.797417 -24.43915,-27.441155 -9.36378,-4.53971 -28.966893,-5.560608 -42.673521,-2.222042 -7.479278,1.821751 -8.04796,1.587243 -4.254903,-1.760708 C 70.885454,78.416629 84.011921,74.094118 97.455314,74.06704 Z M 81.255475,92.96851 c 4.217272,-8.5e-4 8.084997,0.271761 11.028899,0.882841 18.971576,3.938093 30.485706,12.733779 35.302116,26.969859 2.67232,7.89871 2.59241,10.07986 -0.57584,15.6937 -1.44653,2.56311 -2.93475,4.84774 -3.30734,5.07801 -0.3726,0.23028 -2.62338,-3.56423 -5.00168,-8.43347 -3.02879,-6.20106 -5.57284,-10.08197 -8.49321,-12.95224 -4.95347,-4.86848 -16.072666,-10.70371 -23.899827,-12.54401 -10.856626,-2.55255 -28.20723,-1.29411 -39.054187,2.83274 -2.750133,1.04632 -4.953828,1.45343 -5.406583,1.00066 -0.880284,-0.88029 4.434843,-9.92418 7.555603,-12.85599 3.406303,-3.200042 19.200266,-5.668931 31.852049,-5.6721 z m 78.656015,18.9496 c 1.38689,0.0739 2.97535,0.48274 5.46798,1.30103 18.8626,6.19228 30.40317,18.68755 33.12985,35.86799 1.01046,6.36679 0.69381,20.55923 -0.55758,25.01168 -0.53497,1.90341 -1.59585,2.48773 -2.31498,1.27448 -0.20774,-0.35049 -1.20375,-3.66979 -2.21374,-7.37639 -6.34874,-23.2995 -23.81369,-40.3562 -41.37414,-40.40667 -5.52543,-0.0159 -5.82808,-1.29398 -1.95985,-8.29905 2.95416,-5.3498 3.76607,-6.2043 6.62133,-6.97314 0.66582,-0.17929 1.26399,-0.30229 1.85529,-0.36508 0.44348,-0.0471 0.88354,-0.0595 1.34584,-0.0348 z m -91.505359,0.43146 c 5.535084,-0.0504 8.092151,0.34256 12.794583,1.5317 14.08137,3.56089 23.291616,9.71742 29.274876,19.56693 3.19722,5.26317 5.99737,15.24081 5.08465,18.11654 -0.30581,0.96351 -2.1376,3.22085 -4.0707,5.0166 -1.9331,1.79576 -3.75421,3.26986 -4.04747,3.27581 -0.99806,0.0198 -2.29623,-2.11001 -4.13875,-6.78893 -4.287756,-10.88847 -9.819476,-17.59781 -17.870932,-21.67777 -5.131057,-2.60011 -16.81127,-5.49435 -22.202177,-5.50285 -5.603091,-0.008 -15.438221,2.0138 -22.202177,4.56524 -4.602615,1.73615 -5.860468,1.94216 -6.214748,1.01892 -0.244326,-0.63671 0.559132,-4.44737 1.785598,-8.46833 1.972666,-6.46734 2.493011,-7.37088 4.515441,-7.82278 1.257419,-0.28097 3.62497,-0.88551 5.260554,-1.34418 1.635583,-0.45868 8.526969,-1.04401 15.313679,-1.30103 2.69674,-0.10214 4.872542,-0.16907 6.717573,-0.18587 z m -18.524775,20.07805 c 11.145152,-0.18839 24.887345,2.85989 31.981493,7.35647 7.360795,4.66561 15.610815,16.62412 16.885195,24.47732 0.4473,2.75637 0.12153,3.48948 -3.10488,6.98973 -3.74818,4.06627 -6.488529,4.97242 -7.328258,2.42284 -4.223594,-12.82364 -15.264969,-22.85451 -28.174647,-25.59581 -6.12149,-1.29987 -16.509804,-1.15349 -22.68342,0.32027 -6.793413,1.62172 -7.656857,0.85885 -6.30437,-5.57916 1.563592,-7.4428 3.635948,-8.92594 14.137113,-10.1079 1.459136,-0.16423 2.999608,-0.25686 4.591774,-0.28376 z m 95.305574,2.91072 c 1.9074,0.002 4.28841,0.57783 7.68338,1.59808 11.76024,3.53415 22.61706,12.01538 27.96722,21.84871 4.38034,8.05085 7.66492,20.18959 7.7647,28.69572 0.087,7.41453 8.5e-4,7.76949 -2.81614,11.68273 -4.13283,5.74084 -4.50273,5.58269 -5.9791,-2.55891 -2.55472,-14.08844 -10.47521,-27.90741 -20.63231,-35.99577 -4.99044,-3.97402 -13.8647,-8.35701 -21.24964,-10.49456 -6.10074,-1.76581 -6.18491,-2.73376 -0.81978,-9.40592 3.04064,-3.7814 4.90264,-5.37308 8.08167,-5.37008 z M 40.865402,152.31316 c 7.027433,0.13934 14.686193,1.81408 20.633972,4.57518 9.109789,4.22897 18.337426,15.70512 19.480634,24.22841 0.377162,2.81188 0.09923,3.35182 -2.98541,5.7949 -5.306333,4.20269 -5.925764,3.93327 -9.853984,-4.2881 -3.036628,-6.35532 -8.736205,-12.12207 -14.780989,-14.95523 -4.304863,-2.01768 -5.880154,-2.27846 -13.781975,-2.27846 -4.906732,0 -9.442666,-0.33603 -10.079677,-0.74677 -1.422295,-0.91708 -0.934644,-9.39562 0.630604,-10.96086 0.568903,-0.56891 4.037188,-1.16473 7.769682,-1.33422 0.971316,-0.0441 1.963235,-0.0547 2.967143,-0.0348 z m 85.718758,4.28644 c 0.33519,-0.0165 0.6877,-0.009 1.06373,0.0216 1.80494,0.14706 4.14971,0.82667 7.68505,1.94656 6.30371,1.99685 13.50682,6.58971 12.61039,8.04018 -0.22326,0.36123 -3.11856,0.90994 -6.43381,1.21806 -3.31525,0.30812 -7.38916,1.12879 -9.05246,1.82377 -3.53192,1.47574 -6.85638,1.51175 -12.16233,0.13276 -5.45046,-1.41655 -5.49979,-3.52528 -0.20909,-9.01429 2.66141,-2.76119 4.15217,-4.05299 6.49852,-4.16862 z m -93.340744,12.69501 c 1.615794,0.072 3.620823,0.46066 6.116842,1.12513 12.571346,3.3467 22.230742,11.8125 23.65754,20.7352 0.546395,3.41695 0.397884,3.76566 -2.97213,6.97147 -3.783372,3.59903 -6.591706,4.30926 -7.459355,1.88683 -4.249304,-11.86383 -5.160855,-13.23679 -10.687052,-16.08699 -3.401452,-1.75436 -5.585385,-2.27293 -9.296399,-2.21209 -2.732044,0.0448 -5.196541,-0.34931 -5.643892,-0.9011 -0.45453,-0.56066 -0.517031,-2.76533 -0.147695,-5.15601 0.626127,-4.05281 1.904074,-6.00763 4.941933,-6.32759 0.455678,-0.048 0.951612,-0.0589 1.490208,-0.0348 z m 75.753574,5.31863 c 3.03657,0.17954 7.89913,2.83608 7.89913,4.62332 0,1.6888 -1.79358,4.59317 -4.96184,8.03187 -2.56354,2.78236 -2.62011,2.78126 -8.84503,-0.063 -3.06694,-1.40137 -4.885506,-2.75231 -4.885506,-3.63094 0,-1.8102 6.925946,-8.19998 9.621666,-8.87655 0.33972,-0.0853 0.7378,-0.11029 1.17158,-0.0846 z m -80.713758,10.31865 c 1.008165,0.0801 2.224996,0.48263 3.758722,1.14006 8.098388,3.47137 13.426191,10.43303 13.46502,17.59546 0.01759,3.24675 -0.200161,3.54758 -3.828419,5.31033 -5.272143,2.56141 -6.047061,2.40315 -6.647876,-1.35413 -0.728238,-4.55416 -4.454453,-7.89617 -9.427509,-8.4567 -2.149122,-0.24224 -4.0751,-0.71263 -4.279798,-1.04382 -0.204673,-0.3312 0.473095,-3.19972 1.505152,-6.37406 1.447886,-4.45333 2.554008,-6.47097 4.512128,-6.78727 0.293716,-0.0474 0.606525,-0.0566 0.94258,-0.0299 z m 64.329722,5.82145 c 2.10928,0.0406 4.39586,0.77767 7.15568,2.2154 5.394156,2.81011 7.620536,5.53461 8.172936,10.00169 1.47785,11.95078 4.61808,19.06397 11.55496,26.17497 1.8407,1.88693 3.34716,3.89423 3.34716,4.46068 0,0.76387 -3.51175,1.03054 -13.59445,1.03054 -15.351606,0 -14.821396,0.29252 -12.319976,-6.79723 1.53253,-4.34362 1.64367,-10.88918 0.26386,-15.49456 -1.20541,-4.02328 -6.97223,-10.69352 -11.228045,-12.98543 -1.679876,-0.90468 -3.0551,-2.23658 -3.0551,-2.96051 0,-0.72394 1.624963,-2.38286 3.611028,-3.68571 2.050647,-1.34522 3.982667,-2.0004 6.091947,-1.95984 z m -20.667158,11.21809 3.994374,2.08596 c 6.058531,3.16292 13.425341,10.86179 14.613364,15.27385 1.24176,4.61153 -0.38577,9.45278 -4.527051,13.46668 -2.406338,2.3323 -3.619949,2.80013 -8.465004,3.25257 -6.674887,0.62332 -7.267869,-0.003 -5.295398,-5.5941 2.814341,-7.97672 0.726726,-16.02469 -5.087963,-19.61837 -1.671863,-1.03326 -2.895458,-2.31344 -2.719894,-2.84601 0.175555,-0.53256 1.93173,-2.10556 3.903096,-3.49486 z m -50.678841,2.36309 c 1.400161,-0.14639 3.134261,0.77252 5.570872,2.82277 2.834801,2.38534 3.412684,6.09781 1.281116,8.22937 -0.694711,0.69471 -3.175487,1.89875 -5.51279,2.67508 -2.337312,0.77633 -4.467776,1.7639 -4.734499,2.19549 -0.286095,0.46293 3.638709,0.78493 9.571882,0.78493 12.037262,0 13.833421,0.77468 13.833421,5.96583 0,2.41334 -0.448455,3.56089 -1.642881,4.20014 -0.903895,0.48375 -1.76417,0.84474 -1.91172,0.80319 -5.954925,-1.67665 -24.71083,-6.71028 -26.395685,-7.08431 -1.3533448,-0.30044 -2.3365468,-1.0884 -2.3365468,-1.8719 0,-1.37613 7.2331768,-13.85966 10.0365318,-17.32165 0.680037,-0.8398 1.400204,-1.3111 2.240299,-1.39894 z m 33.778706,6.98973 3.098244,1.7939 c 1.704575,0.9869 4.246942,3.20964 5.64887,4.93861 3.225158,3.97748 3.560168,9.99746 0.76502,13.75542 -1.885415,2.53488 -4.405955,3.00743 -11.800557,2.21209 -4.714167,-0.50704 -5.624689,-1.48723 -5.001673,-5.38335 0.385344,-2.40983 0.03331,-4.254 -1.36575,-7.14406 -2.236075,-4.61912 -1.920038,-5.21973 4.29307,-8.12979 z" /></g></svg>
